<mxfile host="app.diagrams.net" modified="2023-05-17T19:51:22.525Z" agent="Mozilla/5.0 (X11; Linux x86_64) AppleWebKit/537.36 (KHTML, like Gecko) Chrome/104.0.0.0 Safari/537.36" version="21.3.2" etag="XUbRYU45e_NNYE1M9ux0" type="github">
  <diagram name="Page-1" id="Q4W-44s9U4OyGl6efEcb">
    <mxGraphModel>
      <root>
        <mxCell id="0" />
        <mxCell id="1" parent="0" />
      </root>
    </mxGraphModel>
  </diagram>
</mxfile>
